<?xml version="1.0" encoding="UTF-8" standalone="yes"?>
<svg xmlns="http://www.w3.org/2000/svg" xmlns:xlink="http://www.w3.org/1999/xlink" width="615.625pt" height="529.183pt" version="1.1" viewBox="-360.711 442.439 615.625 529.183">
  <!--
	Exported with Concepts: Smarter Sketching
	Version: 2020.12.2 on Android 11
	https://concepts.app/
	-->
  <title>Senza titolo 16</title>
  <desc>Drawing exported from Concepts: Smarter Sketching</desc>
  <defs></defs>
  <g id="Riempi" opacity="1.000">
    <path id="STROKE_714787c5-855c-4d58-836b-b7972305b71a" opacity="1.000" fill="#90d94b" stroke="#90d94b" stroke-width="0.000" stroke-opacity="1.000" stroke-linecap="round" stroke-linejoin="round" d="M -258.062 946.159 Q -258.309 946.004 -258.916 945.530 Q -259.522 945.055 -260.979 943.581 Q -262.437 942.107 -263.394 941.053 Q -264.351 939.999 -264.554 939.726 Q -264.758 939.452 -265.776 938.049 Q -266.795 936.646 -268.599 933.213 Q -270.403 929.779 -271.626 926.534 Q -272.849 923.289 -273.584 920.619 Q -274.319 917.950 -275.292 910.151 Q -276.265 902.352 -276.542 898.169 Q -276.819 893.986 -276.544 888.332 Q -276.270 882.677 -275.268 877.873 Q -274.266 873.068 -272.057 865.017 Q -269.847 856.967 -268.295 851.524 Q -266.743 846.081 -263.293 837.041 Q -259.843 828.001 -257.445 822.833 Q -255.046 817.665 -253.853 815.436 Q -252.661 813.208 -250.925 810.130 Q -249.190 807.052 -246.014 802.131 Q -242.838 797.210 -238.676 792.091 Q -234.513 786.972 -232.304 784.542 Q -230.094 782.113 -227.930 779.852 Q -225.766 777.590 -218.764 770.163 Q -211.763 762.735 -207.389 758.545 Q -203.015 754.354 -200.909 752.549 Q -198.803 750.743 -195.667 747.983 Q -192.531 745.222 -188.064 741.737 Q -183.597 738.251 -180.237 736.059 Q -176.876 733.868 -173.897 732.345 Q -170.917 730.823 -169.205 730.092 Q -167.493 729.362 -166.260 728.886 Q -165.027 728.410 -158.742 726.162 Q -152.457 723.915 -147.541 722.315 Q -142.625 720.716 -139.370 719.615 Q -136.116 718.514 -128.542 716.284 Q -120.968 714.055 -116.567 712.968 Q -112.165 711.882 -109.846 711.459 Q -107.528 711.037 -100.988 710.350 Q -94.449 709.663 -90.406 709.430 Q -86.363 709.197 -83.617 709.158 Q -80.871 709.119 -78.364 709.217 Q -75.857 709.314 -66.419 709.668 Q -56.982 710.022 -49.128 710.471 Q -41.274 710.920 -35.009 711.466 Q -28.744 712.013 -24.022 712.548 Q -19.300 713.083 -18.191 713.234 Q -17.082 713.386 -16.264 713.516 Q -15.446 713.646 -14.175 713.820 Q -12.905 713.994 -8.203 714.883 Q -3.501 715.771 -0.966 716.360 Q 1.568 716.950 7.342 718.421 Q 13.116 719.892 17.450 721.126 Q 21.784 722.359 31.469 727.083 Q 41.154 731.807 46.434 734.873 Q 51.714 737.938 55.972 740.498 Q 60.230 743.057 64.029 745.620 Q 67.828 748.182 69.739 749.558 Q 71.649 750.934 73.015 752.030 Q 74.381 753.126 74.670 753.355 Q 74.959 753.584 78.096 756.478 Q 81.232 759.372 83.045 761.142 Q 84.858 762.913 86.745 764.812 Q 88.631 766.711 89.717 767.845 Q 90.802 768.979 94.822 773.286 Q 98.841 777.592 103.763 783.202 Q 108.686 788.813 111.427 792.080 Q 114.168 795.347 116.627 798.928 Q 119.087 802.508 122.590 808.813 Q 126.093 815.119 128.131 819.203 Q 130.170 823.287 133.934 831.113 Q 137.699 838.938 139.823 843.400 Q 141.947 847.861 143.168 850.323 Q 144.390 852.784 148.364 861.880 Q 152.338 870.976 154.436 876.424 Q 156.533 881.872 157.325 884.260 Q 158.117 886.649 159.325 891.570 Q 160.534 896.490 160.957 899.191 Q 161.381 901.891 161.540 905.429 Q 161.699 908.967 161.269 912.394 Q 160.838 915.822 160.273 917.866 Q 159.707 919.910 158.969 921.902 Q 158.232 923.893 157.644 925.110 Q 157.056 926.326 156.999 926.458 Q 156.943 926.590 155.585 928.795 Q 154.227 931.000 153.205 932.267 Q 152.183 933.534 151.549 934.193 Q 150.915 934.853 150.058 935.625 Q 149.201 936.397 148.153 937.153 Q 147.105 937.909 144.352 939.324 Q 141.599 940.739 139.110 941.765 Q 136.621 942.791 135.391 943.228 Q 134.162 943.664 131.886 944.346 Q 129.610 945.028 125.724 946.033 Q 121.837 947.038 117.530 947.935 Q 113.223 948.832 110.554 949.229 Q 107.884 949.626 103.640 949.885 Q 99.396 950.145 94.191 950.084 Q 88.987 950.022 70.977 948.499 Q 52.966 946.976 43.606 946.354 Q 34.245 945.732 30.240 945.621 Q 26.234 945.511 24.364 945.502 Q 22.494 945.493 19.551 945.632 Q 16.609 945.771 4.110 946.854 "></path>
    <path id="STROKE_6f235f9c-7b67-432f-b968-9cf94d87759e" opacity="1.000" fill="#90d94b" stroke="#90d94b" stroke-width="0.000" stroke-opacity="1.000" stroke-linecap="round" stroke-linejoin="round" d="M -250.768 716.474 L -251.549 715.998 Q -253.158 714.839 -256.092 712.096 Q -259.027 709.352 -260.842 707.306 Q -262.657 705.260 -264.587 702.770 Q -266.517 700.279 -269.016 696.194 Q -271.515 692.109 -273.933 686.422 Q -276.352 680.734 -277.401 677.083 Q -278.451 673.431 -278.872 671.757 Q -279.293 670.083 -280.112 665.881 Q -280.930 661.680 -281.369 657.458 Q -281.807 653.236 -281.731 649.515 Q -281.655 645.794 -281.351 644.031 Q -281.048 642.269 -280.422 640.519 Q -279.797 638.770 -279.180 637.871 Q -278.563 636.973 -278.138 636.585 Q -277.714 636.196 -277.270 635.939 Q -276.826 635.682 -276.794 635.650 Q -276.762 635.617 -275.188 635.333 Q -273.614 635.048 -268.446 638.051 Q -263.279 641.055 -259.730 644.368 Q -256.181 647.681 -253.913 650.432 Q -251.645 653.183 -249.286 656.961 Q -246.927 660.739 -244.261 665.958 Q -241.595 671.176 -239.553 676.225 Q -237.511 681.275 -236.640 685.269 Q -235.769 689.263 -235.819 691.884 Q -235.870 694.505 -236.179 695.709 Q -236.489 696.912 -237.586 698.484 Q -238.684 700.056 -240.608 700.871 Q -242.533 701.686 -244.204 701.693 Q -245.875 701.701 -247.970 700.972 Q -250.065 700.244 -251.896 698.197 Q -253.727 696.150 -254.473 695.230 "></path>
    <path id="STROKE_ba5710f5-f8fa-4817-b5e8-5acbfe5bbde6" opacity="1.000" fill="#90d94b" stroke="#90d94b" stroke-width="0.000" stroke-opacity="1.000" stroke-linecap="round" stroke-linejoin="round" d="M 113.749 715.779 Q 112.413 715.135 112.022 714.840 Q 111.631 714.545 111.306 714.037 Q 110.981 713.529 110.893 713.409 Q 110.805 713.290 110.159 711.121 Q 109.514 708.952 109.912 703.985 Q 110.310 699.019 112.246 692.428 Q 114.182 685.837 115.637 681.954 Q 117.093 678.070 119.703 672.502 Q 122.312 666.934 125.732 661.806 Q 129.151 656.678 131.052 654.403 Q 132.952 652.128 134.849 650.400 Q 136.745 648.672 139.318 647.062 Q 141.891 645.453 144.556 644.920 Q 147.220 644.388 149.121 644.510 Q 151.021 644.633 152.761 645.535 Q 154.501 646.438 155.281 647.135 Q 156.060 647.832 157.167 649.795 Q 158.274 651.758 158.704 654.511 Q 159.135 657.263 158.832 660.072 Q 158.529 662.880 156.917 667.882 Q 155.305 672.883 152.537 678.231 Q 149.769 683.579 147.521 686.712 Q 145.273 689.845 143.726 691.644 Q 142.180 693.443 139.361 696.077 Q 136.542 698.711 134.126 700.263 Q 131.710 701.815 128.158 702.876 Q 124.606 703.936 121.430 704.018 Q 118.254 704.100 116.001 703.579 Q 113.748 703.058 112.223 701.808 Q 110.698 700.558 110.160 700.092 "></path>
  </g>
  <g id="Penna" opacity="1.000">
    <path id="STROKE_5b99b4b0-fdc1-4428-a0eb-32e2577e599b" opacity="1.000" fill="none" stroke="#000000" stroke-width="11.009" stroke-opacity="1.000" stroke-linecap="round" stroke-linejoin="round" d="M -252.679 954.495 Q -252.061 954.483 -250.477 954.402 Q -248.892 954.321 -246.868 954.191 Q -244.845 954.060 -244.114 954.004 Q -243.383 953.947 -240.871 953.710 Q -238.359 953.472 -232.263 952.984 Q -226.167 952.495 -215.450 951.930 Q -204.733 951.364 -193.900 951.271 Q -183.067 951.179 -172.249 951.403 Q -161.431 951.628 -151.527 951.960 Q -141.622 952.293 -133.571 952.623 Q -125.519 952.953 -108.665 953.717 Q -91.811 954.481 -83.088 954.757 Q -74.365 955.034 -66.971 955.137 Q -59.578 955.240 -52.439 955.241 Q -45.301 955.242 -36.654 955.196 Q -28.007 955.151 -20.922 955.190 Q -13.836 955.229 -4.476 955.424 Q 4.884 955.619 14.160 955.815 Q 23.436 956.012 27.713 956.044 Q 31.990 956.076 38.344 956.047 Q 44.698 956.018 56.041 955.802 Q 67.383 955.586 74.830 955.464 Q 82.278 955.342 85.814 955.304 Q 89.350 955.266 100.528 955.088 Q 111.705 954.911 120.617 954.464 Q 129.530 954.018 135.918 953.254 Q 142.307 952.490 145.375 951.874 Q 148.443 951.258 151.598 950.289 Q 154.752 949.320 158.048 947.750 Q 161.343 946.180 163.215 944.863 Q 165.087 943.546 166.022 942.650 Q 166.956 941.755 167.583 940.985 Q 168.209 940.216 169.793 937.563 Q 171.376 934.911 172.226 932.624 Q 173.075 930.338 173.704 927.485 Q 174.332 924.633 174.655 920.853 Q 174.979 917.073 174.300 908.375 Q 173.622 899.677 172.752 894.937 Q 171.881 890.197 170.632 884.885 Q 169.383 879.573 167.932 874.275 Q 166.482 868.976 164.581 863.032 Q 162.681 857.088 160.904 852.264 Q 159.127 847.440 155.375 839.105 Q 151.623 830.770 148.008 824.222 Q 144.393 817.675 139.031 809.492 Q 133.668 801.309 129.904 796.286 Q 126.139 791.263 121.809 786.102 Q 117.478 780.940 112.785 775.945 Q 108.092 770.949 102.117 765.371 Q 96.141 759.792 90.930 755.553 Q 85.719 751.314 81.103 747.957 Q 76.488 744.601 73.528 742.634 Q 70.568 740.666 68.228 739.195 Q 65.888 737.723 58.143 733.272 Q 50.399 728.822 43.979 725.560 Q 37.559 722.297 32.009 719.764 Q 26.459 717.230 16.779 713.445 Q 7.099 709.659 0.770 707.640 Q -5.559 705.622 -13.348 703.672 Q -21.136 701.723 -27.961 700.472 Q -34.785 699.221 -38.885 698.686 Q -42.986 698.151 -45.534 697.906 Q -48.083 697.660 -51.009 697.459 Q -53.934 697.258 -57.727 697.137 Q -61.520 697.016 -65.498 697.028 Q -69.477 697.040 -78.598 697.732 Q -87.719 698.423 -93.761 699.331 Q -99.803 700.239 -103.096 700.847 Q -106.389 701.454 -114.620 703.415 Q -122.852 705.376 -127.442 706.691 Q -132.033 708.007 -139.862 710.649 Q -147.692 713.292 -155.492 716.388 Q -163.291 719.484 -170.917 723.125 Q -178.542 726.767 -183.427 729.502 Q -188.312 732.236 -194.763 736.469 Q -201.214 740.701 -207.440 745.735 Q -213.666 750.769 -218.031 755.053 Q -222.397 759.336 -224.435 761.593 Q -226.473 763.849 -228.915 766.817 Q -231.358 769.786 -234.507 774.096 Q -237.656 778.405 -241.618 784.746 Q -245.580 791.088 -248.402 796.356 Q -251.223 801.624 -253.775 807.095 Q -256.326 812.566 -260.310 822.500 Q -264.293 832.433 -266.507 838.992 Q -268.720 845.550 -270.113 850.379 Q -271.505 855.208 -273.087 861.975 Q -274.668 868.742 -275.373 872.767 Q -276.077 876.791 -276.784 882.553 Q -277.492 888.316 -277.734 897.768 Q -277.975 907.220 -277.565 911.987 Q -277.155 916.755 -276.757 919.179 Q -276.359 921.604 -275.555 924.758 Q -274.751 927.911 -273.681 930.679 Q -272.612 933.447 -271.234 935.992 Q -269.856 938.538 -268.808 939.919 Q -267.760 941.300 -266.794 942.264 Q -265.828 943.229 -265.228 943.712 Q -264.628 944.195 -262.861 945.424 Q -261.094 946.654 -259.726 947.348 Q -258.359 948.043 -256.645 948.687 Q -254.932 949.331 -254.029 949.568 Q -253.125 949.806 -250.968 950.225 Q -248.811 950.644 -245.708 951.020 Q -242.605 951.396 -235.486 951.832 "></path>
    <path id="STROKE_24f64926-d26e-46b6-9b8e-53fbb84ceace" opacity="1.000" fill="none" stroke="#000000" stroke-width="11.009" stroke-opacity="1.000" stroke-linecap="round" stroke-linejoin="round" d="M -228.482 860.896 L -227.845 861.938 "></path>
    <path id="STROKE_bc90d90c-d359-40df-8966-45e49e0e3bcb" opacity="1.000" fill="none" stroke="#000000" stroke-width="11.009" stroke-opacity="1.000" stroke-linecap="round" stroke-linejoin="round" d="M 120.522 864.369 L 119.017 864.427 "></path>
    <path id="STROKE_a1981770-94c2-4f75-bb53-4fe702e9765e" opacity="1.000" fill="none" stroke="#000000" stroke-width="21.543" stroke-opacity="1.000" stroke-linecap="round" stroke-linejoin="round" d="M -282.259 669.471 Q -279.229 675.799 -276.798 680.506 Q -274.368 685.213 -272.828 687.877 Q -271.289 690.540 -269.376 693.566 Q -267.464 696.592 -266.149 698.442 Q -264.834 700.292 -262.702 702.870 Q -260.570 705.448 -258.289 707.631 Q -256.007 709.815 -254.335 711.037 Q -252.663 712.259 -250.669 713.316 Q -248.676 714.372 -246.742 714.880 Q -244.809 715.388 -243.207 715.356 Q -241.605 715.324 -240.667 715.047 Q -239.730 714.769 -239.099 714.435 Q -238.469 714.101 -237.454 713.238 Q -236.439 712.375 -235.941 711.685 Q -235.444 710.996 -235.087 710.340 Q -234.730 709.685 -234.209 708.001 Q -233.687 706.317 -233.528 705.326 Q -233.368 704.334 -233.673 699.363 Q -233.978 694.391 -235.135 689.757 Q -236.291 685.123 -238.918 678.359 Q -241.544 671.595 -242.383 669.794 Q -243.222 667.994 -243.783 666.812 Q -244.345 665.629 -246.591 661.467 Q -248.838 657.304 -251.262 653.470 Q -253.685 649.637 -255.316 647.356 Q -256.947 645.075 -258.322 643.396 Q -259.697 641.716 -265.047 637.147 Q -270.397 632.578 -270.998 632.297 Q -271.599 632.016 -272.984 631.639 Q -274.369 631.262 -275.574 631.248 Q -276.779 631.234 -276.941 631.248 Q -277.102 631.261 -277.632 631.405 Q -278.162 631.548 -278.666 631.790 Q -279.170 632.033 -279.774 632.487 Q -280.377 632.940 -280.922 633.615 Q -281.467 634.290 -282.424 636.527 Q -283.381 638.765 -283.726 640.585 Q -284.071 642.406 -284.228 644.290 Q -284.386 646.173 -284.396 647.312 Q -284.405 648.451 -284.368 649.529 Q -284.332 650.608 -283.954 654.243 Q -283.575 657.878 -283.395 659.167 Q -283.214 660.457 -283.003 661.779 Q -282.791 663.101 -281.507 669.703 "></path>
    <path id="STROKE_2cb44ad4-8851-4784-aaae-cdb607fc5083" opacity="1.000" fill="none" stroke="#000000" stroke-width="11.009" stroke-opacity="1.000" stroke-linecap="round" stroke-linejoin="round" d="M 147.381 682.148 Q 146.086 684.622 143.902 688.464 Q 141.718 692.306 138.910 696.498 Q 136.101 700.691 134.098 703.083 Q 132.094 705.475 129.943 707.490 Q 127.792 709.505 125.719 710.895 Q 123.646 712.285 121.407 713.047 Q 119.168 713.809 117.533 713.824 Q 115.899 713.840 115.149 713.673 Q 114.399 713.507 113.632 713.110 Q 112.865 712.714 112.326 712.293 Q 111.786 711.873 111.077 710.978 Q 110.368 710.082 109.989 709.438 Q 109.609 708.794 108.900 706.189 Q 108.191 703.584 108.081 701.872 Q 107.972 700.160 108.126 697.852 Q 108.281 695.543 110.127 688.788 Q 111.973 682.033 115.535 674.837 Q 119.098 667.641 123.382 661.526 Q 127.666 655.410 131.839 651.080 Q 136.013 646.750 139.468 644.279 Q 142.924 641.808 145.473 640.699 Q 148.022 639.591 149.681 639.287 Q 151.341 638.984 152.753 639.108 Q 154.165 639.232 155.109 639.587 Q 156.054 639.941 156.872 640.563 Q 157.691 641.184 158.394 642.307 Q 159.098 643.431 159.304 644.005 Q 159.510 644.579 159.764 645.662 Q 160.019 646.745 160.089 649.167 Q 160.159 651.589 159.906 653.244 Q 159.652 654.899 159.314 656.416 Q 158.976 657.933 158.228 660.359 Q 157.479 662.786 156.522 665.102 Q 155.565 667.419 153.305 671.994 Q 151.045 676.570 150.020 678.460 Q 148.994 680.350 147.491 683.151 Q 145.988 685.953 145.700 686.460 Q 145.412 686.967 144.033 689.532 Q 142.654 692.097 140.088 696.967 "></path>
    <path id="STROKE_7563cd10-34bf-4155-a198-9188bb17e950" opacity="1.000" fill="none" stroke="#90d94b" stroke-width="23.277" stroke-opacity="1.000" stroke-linecap="round" stroke-linejoin="round" d="M -176.730 662.815 L -175.033 662.183 Q -171.342 660.986 -167.814 659.946 Q -164.286 658.906 -162.371 658.385 Q -160.456 657.865 -153.497 656.199 Q -146.538 654.534 -138.754 652.959 Q -130.969 651.384 -122.137 649.960 Q -113.306 648.536 -107.645 647.819 Q -101.985 647.101 -90.263 646.247 Q -78.541 645.392 -71.998 645.307 Q -65.455 645.223 -62.090 645.281 Q -58.724 645.339 -49.653 645.965 Q -40.581 646.591 -30.637 648.067 Q -20.693 649.542 -13.457 651.180 Q -6.220 652.819 4.573 656.297 Q 15.365 659.776 22.043 662.696 Q 28.721 665.616 33.490 668.127 Q 38.259 670.638 44.001 674.205 Q 49.742 677.772 53.678 680.650 Q 57.615 683.528 59.262 684.822 Q 60.909 686.116 62.184 687.168 Q 63.459 688.221 66.339 690.657 "></path>
    <path id="STROKE_389005cb-0c8b-4483-8cfb-0ba3a755e067" opacity="1.000" fill="none" stroke="#90d94b" stroke-width="23.277" stroke-opacity="1.000" stroke-linecap="round" stroke-linejoin="round" d="M -238.091 581.776 L -236.786 581.127 Q -222.205 575.582 -214.522 573.008 Q -206.840 570.435 -202.857 569.285 Q -198.874 568.134 -193.863 566.856 Q -188.852 565.577 -179.409 563.608 Q -169.966 561.639 -157.365 559.772 Q -144.763 557.906 -138.516 557.248 Q -132.269 556.591 -127.754 556.245 Q -123.238 555.900 -116.634 555.587 Q -110.030 555.274 -99.673 555.247 Q -89.315 555.220 -80.284 555.686 Q -71.252 556.152 -63.702 556.849 Q -56.152 557.546 -44.865 558.948 Q -33.579 560.349 -24.716 561.774 Q -15.854 563.199 -11.383 564.054 Q -6.913 564.908 -3.780 565.537 Q -0.647 566.165 10.967 569.075 Q 22.581 571.985 28.707 573.849 Q 34.833 575.713 44.148 578.959 Q 53.463 582.205 65.803 587.341 Q 78.143 592.477 86.706 596.678 Q 95.268 600.879 99.021 602.920 Q 102.773 604.961 106.132 606.915 Q 109.491 608.870 110.958 609.738 Q 112.424 610.605 113.990 611.595 Q 115.556 612.584 117.801 614.134 "></path>
    <path id="STROKE_4ac74eac-c17d-48da-9686-9c9c277bf968" opacity="1.000" fill="none" stroke="#90d94b" stroke-width="23.277" stroke-opacity="1.000" stroke-linecap="round" stroke-linejoin="round" d="M -334.995 511.331 Q -332.468 510.032 -328.843 508.663 Q -325.217 507.294 -315.114 504.009 Q -305.010 500.725 -299.299 499.250 Q -293.589 497.775 -289.298 496.803 Q -285.007 495.832 -278.716 494.520 Q -272.424 493.208 -265.007 491.815 Q -257.590 490.422 -240.006 487.574 Q -222.422 484.727 -212.842 483.383 Q -203.262 482.039 -198.742 481.466 Q -194.222 480.892 -185.238 479.862 Q -176.255 478.832 -162.713 477.722 Q -149.172 476.613 -134.045 475.954 Q -118.918 475.295 -111.504 475.127 Q -104.090 474.959 -97.226 474.884 Q -90.362 474.808 -85.779 474.816 Q -81.195 474.823 -78.936 474.828 Q -76.677 474.833 -64.036 475.189 Q -51.395 475.544 -39.837 476.299 Q -28.279 477.054 -17.910 478.084 Q -7.540 479.114 6.669 481.237 Q 20.878 483.361 33.740 485.927 Q 46.602 488.493 55.509 490.613 Q 64.415 492.732 76.428 496.180 Q 88.441 499.628 95.975 502.200 Q 103.510 504.771 108.116 506.530 Q 112.723 508.288 120.227 511.509 Q 127.731 514.729 141.213 521.762 Q 154.694 528.796 161.669 533.123 Q 168.644 537.450 172.331 539.942 Q 176.019 542.434 184.716 548.959 Q 193.414 555.483 201.990 562.877 Q 210.567 570.270 215.431 574.894 Q 220.295 579.517 229.466 588.665 "></path>
    <path id="STROKE_55d5a781-f652-493f-b5a2-b16680dbfb1e" opacity="1.000" fill="none" stroke="#000000" stroke-width="11.009" stroke-opacity="1.000" stroke-linecap="round" stroke-linejoin="round" d="M -75.254 665.535 Q -75.922 665.460 -77.455 665.361 Q -78.987 665.263 -82.776 665.147 Q -86.565 665.032 -88.904 664.980 Q -91.243 664.929 -98.216 665.077 Q -105.188 665.226 -108.902 665.474 Q -112.615 665.721 -114.282 665.844 Q -115.949 665.966 -125.029 666.985 Q -134.108 668.004 -139.839 668.801 Q -145.570 669.597 -154.356 670.662 Q -163.141 671.727 -170.493 671.853 Q -177.846 671.979 -180.898 671.390 Q -183.950 670.801 -185.325 670.167 Q -186.700 669.532 -187.447 668.986 Q -188.194 668.440 -188.699 667.853 Q -189.204 667.267 -189.581 666.685 Q -189.959 666.103 -190.121 665.722 Q -190.284 665.341 -190.375 665.007 Q -190.467 664.673 -190.538 664.009 Q -190.609 663.345 -190.098 661.419 Q -189.587 659.493 -188.976 658.359 Q -188.366 657.226 -187.284 655.762 Q -186.201 654.298 -182.000 650.597 Q -177.799 646.896 -174.217 644.632 Q -170.635 642.368 -168.263 641.114 Q -165.891 639.860 -158.965 636.888 Q -152.039 633.915 -144.921 631.672 Q -137.803 629.430 -132.954 628.232 Q -128.104 627.034 -125.405 626.452 Q -122.706 625.869 -120.000 625.349 Q -117.295 624.828 -110.194 623.707 Q -103.094 622.586 -93.807 621.851 Q -84.520 621.117 -79.311 621.043 Q -74.102 620.968 -70.702 621.011 Q -67.302 621.054 -58.468 621.683 Q -49.634 622.312 -44.129 623.043 Q -38.623 623.775 -31.558 625.098 Q -24.494 626.420 -19.265 627.648 Q -14.037 628.876 -2.355 632.200 Q 9.328 635.523 15.223 637.526 Q 21.119 639.528 24.941 641.056 Q 28.763 642.583 33.543 644.776 Q 38.322 646.969 42.730 649.387 Q 47.138 651.805 49.379 653.230 Q 51.620 654.656 54.689 656.858 Q 57.757 659.061 59.308 660.289 Q 60.859 661.516 61.948 662.422 Q 63.037 663.329 65.378 665.534 Q 67.719 667.739 69.065 669.220 Q 70.411 670.700 71.651 672.469 Q 72.891 674.237 73.553 675.399 Q 74.215 676.560 74.500 677.102 Q 74.784 677.644 75.640 679.676 Q 76.497 681.707 76.754 682.939 Q 77.011 684.170 77.045 685.144 Q 77.078 686.118 76.985 686.721 Q 76.892 687.324 76.610 688.004 Q 76.328 688.685 76.277 688.828 Q 76.226 688.972 74.699 690.611 Q 73.171 692.250 72.092 692.780 Q 71.013 693.310 68.628 693.797 Q 66.243 694.285 64.808 694.320 Q 63.374 694.355 56.777 693.301 Q 50.180 692.247 44.764 690.639 Q 39.349 689.031 34.807 687.482 Q 30.265 685.933 26.435 684.592 Q 22.605 683.252 19.874 682.327 Q 17.143 681.403 11.257 679.616 Q 5.371 677.829 -3.713 675.637 Q -12.798 673.446 -18.672 672.317 Q -24.547 671.188 -27.440 670.698 Q -30.334 670.208 -32.662 669.829 Q -34.990 669.451 -47.085 667.851 Q -59.181 666.252 -63.033 665.882 Q -66.886 665.511 -74.436 665.038 Q -81.985 664.566 -87.526 664.262 "></path>
    <path id="STROKE_0d5f39f5-e6ef-44b4-aea0-f91ef7c5faa3" opacity="1.000" fill="none" stroke="#000000" stroke-width="11.009" stroke-opacity="1.000" stroke-linecap="round" stroke-linejoin="round" d="M -61.077 574.446 Q -61.517 574.379 -62.987 574.234 Q -64.457 574.089 -65.807 573.971 Q -67.157 573.853 -68.859 573.728 Q -70.562 573.603 -72.260 573.524 Q -73.958 573.445 -75.651 573.404 Q -77.345 573.363 -79.037 573.351 Q -80.729 573.339 -82.425 573.345 Q -84.121 573.351 -85.596 573.358 Q -87.071 573.366 -88.333 573.377 Q -89.595 573.387 -90.649 573.405 Q -91.702 573.422 -92.550 573.449 Q -93.398 573.476 -94.581 573.541 Q -95.763 573.605 -97.279 573.703 Q -98.795 573.802 -100.182 573.900 Q -101.568 573.998 -102.575 574.071 Q -103.582 574.143 -104.672 574.224 Q -105.762 574.304 -106.801 574.384 Q -107.839 574.464 -108.827 574.544 Q -109.815 574.624 -110.752 574.704 Q -111.688 574.784 -113.017 574.905 Q -114.346 575.026 -115.915 575.190 Q -117.484 575.354 -118.851 575.521 Q -120.217 575.688 -121.543 575.859 Q -122.869 576.030 -124.154 576.204 Q -125.440 576.379 -126.685 576.557 Q -127.929 576.735 -129.134 576.917 Q -130.338 577.098 -131.584 577.311 Q -132.831 577.523 -133.776 577.690 Q -134.721 577.857 -135.781 578.050 Q -136.841 578.242 -138.014 578.460 Q -139.188 578.678 -140.477 578.921 Q -141.765 579.165 -143.168 579.433 Q -144.571 579.702 -146.088 579.996 Q -147.605 580.290 -149.057 580.578 Q -150.508 580.866 -151.895 581.147 Q -153.282 581.429 -154.603 581.705 Q -155.925 581.980 -157.181 582.250 Q -158.437 582.519 -159.628 582.782 Q -160.819 583.045 -161.945 583.302 Q -163.071 583.559 -164.131 583.810 Q -165.192 584.061 -166.187 584.306 Q -167.182 584.550 -168.129 584.786 Q -169.076 585.022 -170.424 585.361 Q -171.772 585.701 -173.375 586.118 Q -174.979 586.534 -176.389 586.915 Q -177.799 587.295 -179.015 587.639 Q -180.231 587.983 -181.515 588.352 Q -182.799 588.721 -184.151 589.115 Q -185.504 589.509 -186.924 589.928 Q -188.344 590.347 -189.832 590.792 Q -191.320 591.236 -192.673 591.641 Q -194.026 592.047 -195.245 592.414 Q -196.464 592.782 -197.548 593.111 Q -198.632 593.440 -199.581 593.730 Q -200.531 594.021 -201.719 594.369 Q -202.907 594.717 -204.334 595.121 Q -205.761 595.526 -207.011 595.873 Q -208.260 596.219 -209.153 596.465 Q -210.045 596.710 -210.998 596.969 Q -211.950 597.229 -212.865 597.470 Q -213.780 597.711 -215.096 598.044 Q -216.411 598.377 -218.015 598.746 Q -219.619 599.115 -221.073 599.409 Q -222.527 599.703 -223.830 599.922 Q -225.133 600.141 -226.314 600.313 Q -227.495 600.484 -228.555 600.609 Q -229.614 600.733 -230.551 600.810 Q -231.488 600.887 -232.711 600.932 Q -233.934 600.976 -235.272 600.950 Q -236.610 600.923 -237.656 600.811 Q -238.701 600.698 -239.723 600.501 Q -240.745 600.303 -241.744 600.021 Q -242.743 599.739 -243.503 599.474 Q -244.264 599.210 -245.048 598.838 Q -245.831 598.467 -246.372 598.110 Q -246.913 597.753 -247.604 597.174 Q -248.296 596.595 -249.057 595.676 Q -249.819 594.758 -250.319 593.910 Q -250.820 593.063 -251.356 591.556 Q -251.893 590.049 -252.062 588.749 Q -252.231 587.449 -252.169 586.515 Q -252.106 585.581 -251.850 584.456 Q -251.593 583.331 -251.122 581.703 Q -250.651 580.075 -250.072 578.765 Q -249.492 577.454 -249.031 576.551 Q -248.569 575.648 -248.032 574.715 Q -247.495 573.783 -246.999 572.964 Q -246.502 572.145 -245.818 571.088 Q -245.134 570.030 -244.384 569.076 Q -243.634 568.122 -242.721 567.105 Q -241.809 566.088 -241.002 565.279 Q -240.196 564.469 -239.393 563.787 Q -238.591 563.104 -237.524 562.280 Q -236.457 561.455 -235.125 560.488 Q -233.793 559.521 -232.196 558.411 Q -230.600 557.301 -229.028 556.290 Q -227.455 555.279 -225.908 554.366 Q -224.360 553.453 -222.837 552.639 Q -221.314 551.825 -219.815 551.109 Q -218.317 550.393 -217.004 549.784 Q -215.691 549.175 -214.563 548.672 Q -213.436 548.169 -212.494 547.772 Q -211.553 547.376 -210.797 547.085 Q -210.041 546.795 -208.875 546.402 Q -207.709 546.009 -206.527 545.636 Q -205.345 545.264 -204.455 544.990 Q -203.564 544.716 -202.571 544.416 Q -201.579 544.116 -200.483 543.790 Q -199.388 543.464 -198.190 543.113 Q -196.992 542.761 -195.782 542.422 Q -194.573 542.083 -193.351 541.756 Q -192.130 541.428 -190.897 541.113 Q -189.664 540.798 -188.420 540.496 Q -187.175 540.193 -185.919 539.902 Q -184.663 539.611 -183.395 539.333 Q -182.128 539.054 -180.848 538.788 Q -179.569 538.521 -178.278 538.267 Q -176.986 538.013 -175.689 537.770 Q -174.391 537.527 -173.087 537.295 Q -171.783 537.064 -170.473 536.843 Q -169.162 536.623 -167.845 536.414 Q -166.529 536.205 -165.205 536.007 Q -163.882 535.809 -162.552 535.623 Q -161.222 535.436 -159.886 535.261 Q -158.549 535.086 -157.206 534.922 Q -155.864 534.758 -154.611 534.608 Q -153.359 534.458 -152.197 534.323 Q -151.035 534.187 -149.964 534.065 Q -148.892 533.944 -147.911 533.836 Q -146.930 533.729 -146.040 533.635 Q -145.150 533.542 -143.950 533.423 Q -142.750 533.304 -141.512 533.201 Q -140.274 533.099 -138.948 532.998 Q -137.622 532.898 -136.209 532.800 Q -134.795 532.703 -133.294 532.607 Q -131.793 532.512 -130.205 532.418 Q -128.616 532.325 -127.308 532.251 Q -126.000 532.176 -124.972 532.121 Q -123.945 532.065 -123.081 532.024 Q -122.218 531.982 -121.169 531.941 Q -120.119 531.901 -119.537 531.877 Q -118.956 531.853 -117.785 531.836 Q -116.615 531.819 -115.150 531.805 Q -113.685 531.792 -112.497 531.781 Q -111.309 531.771 -109.909 531.760 Q -108.509 531.749 -106.897 531.737 Q -105.285 531.724 -103.462 531.711 Q -101.638 531.698 -99.862 531.695 Q -98.085 531.693 -96.356 531.701 Q -94.626 531.709 -92.943 531.727 Q -91.261 531.746 -89.625 531.775 Q -87.990 531.804 -86.401 531.843 Q -84.812 531.883 -83.271 531.933 Q -81.729 531.983 -80.234 532.043 Q -78.740 532.104 -77.292 532.175 Q -75.845 532.246 -74.412 532.328 Q -72.980 532.409 -71.563 532.501 Q -70.146 532.593 -68.744 532.694 Q -67.343 532.796 -65.956 532.908 Q -64.570 533.021 -63.199 533.143 Q -61.828 533.265 -60.472 533.398 Q -59.116 533.530 -57.776 533.673 Q -56.435 533.816 -55.110 533.969 Q -53.785 534.122 -52.547 534.268 Q -51.310 534.414 -50.160 534.554 Q -49.010 534.693 -47.948 534.826 Q -46.885 534.958 -45.423 535.147 Q -43.961 535.336 -42.361 535.560 Q -40.762 535.785 -39.513 535.982 Q -38.264 536.179 -36.754 536.437 Q -35.244 536.695 -33.916 536.934 Q -32.588 537.173 -31.637 537.348 Q -30.686 537.522 -29.670 537.712 Q -28.655 537.902 -27.573 538.107 Q -26.492 538.312 -25.346 538.532 Q -24.200 538.753 -23.066 538.975 Q -21.933 539.198 -20.813 539.424 Q -19.692 539.649 -18.585 539.877 Q -17.477 540.105 -16.383 540.335 Q -15.289 540.566 -14.207 540.799 Q -13.126 541.032 -12.057 541.267 Q -10.989 541.503 -9.933 541.741 Q -8.878 541.979 -7.835 542.219 Q -6.793 542.460 -5.806 542.690 Q -4.820 542.920 -3.423 543.249 Q -2.027 543.578 -0.389 543.973 Q 1.249 544.369 2.664 544.722 Q 4.079 545.075 5.270 545.385 Q 6.462 545.695 7.779 546.052 Q 9.095 546.409 10.537 546.811 Q 11.978 547.214 13.545 547.664 Q 15.112 548.113 16.804 548.609 Q 18.495 549.104 20.161 549.607 Q 21.826 550.110 23.466 550.621 Q 25.105 551.132 26.718 551.650 Q 28.332 552.168 29.919 552.693 Q 31.506 553.219 32.918 553.695 Q 34.330 554.171 35.567 554.597 Q 36.804 555.023 37.867 555.400 Q 38.929 555.777 39.816 556.104 Q 40.704 556.431 41.805 556.855 Q 42.907 557.279 44.222 557.800 Q 45.538 558.321 47.068 558.939 Q 48.598 559.557 50.342 560.272 Q 52.086 560.987 53.646 561.638 Q 55.206 562.288 56.583 562.874 Q 57.959 563.459 59.151 563.980 Q 60.344 564.501 61.352 564.958 Q 62.360 565.414 63.588 566.000 Q 64.815 566.586 66.261 567.301 Q 67.707 568.017 68.956 568.651 Q 70.205 569.284 71.092 569.739 Q 71.979 570.194 72.921 570.682 Q 73.863 571.169 74.764 571.640 Q 75.666 572.112 76.958 572.795 Q 78.249 573.478 79.810 574.324 Q 81.370 575.171 82.769 575.954 Q 84.168 576.736 85.405 577.455 Q 86.642 578.173 87.855 578.894 Q 89.067 579.615 90.256 580.338 Q 91.444 581.060 92.607 581.785 Q 93.771 582.510 94.910 583.237 Q 96.049 583.964 97.040 584.605 Q 98.031 585.245 98.874 585.799 Q 99.717 586.352 100.411 586.819 Q 101.106 587.286 101.926 587.857 Q 102.746 588.427 103.948 589.313 Q 105.151 590.199 106.462 591.209 Q 107.774 592.220 108.921 593.131 Q 110.067 594.042 111.049 594.852 Q 112.031 595.663 113.193 596.695 Q 114.355 597.727 115.697 598.981 Q 117.039 600.235 118.059 601.288 Q 119.079 602.341 119.776 603.194 Q 120.474 604.047 121.065 604.909 Q 121.656 605.770 122.139 606.640 Q 122.623 607.510 122.917 608.069 Q 123.211 608.627 123.368 608.996 Q 123.524 609.365 123.899 610.979 Q 124.275 612.593 124.241 613.773 Q 124.208 614.953 124.125 615.266 Q 124.042 615.578 123.783 616.078 Q 123.524 616.577 122.682 617.210 Q 121.840 617.842 121.041 618.392 Q 120.243 618.941 119.206 619.618 Q 118.170 620.295 117.240 620.832 Q 116.309 621.368 115.070 621.963 Q 113.832 622.557 112.602 622.789 Q 111.372 623.020 110.206 623.157 Q 109.041 623.294 107.939 623.336 Q 106.838 623.378 105.358 623.315 Q 103.879 623.253 102.485 623.128 Q 101.092 623.003 100.085 622.874 Q 99.078 622.745 97.992 622.569 Q 96.907 622.394 95.743 622.173 Q 94.580 621.952 93.338 621.685 Q 92.096 621.417 90.979 621.162 Q 89.863 620.906 88.872 620.662 Q 87.881 620.418 87.016 620.186 Q 86.151 619.953 85.411 619.733 Q 84.671 619.512 83.738 619.214 Q 82.805 618.917 81.679 618.542 Q 80.554 618.168 79.234 617.717 Q 77.915 617.266 76.403 616.738 Q 74.891 616.210 73.355 615.661 Q 71.820 615.112 70.260 614.542 Q 68.701 613.972 67.118 613.381 Q 65.534 612.790 63.928 612.178 Q 62.321 611.566 60.784 610.977 Q 59.246 610.388 57.778 609.821 Q 56.310 609.254 54.912 608.711 Q 53.513 608.167 52.184 607.645 Q 50.855 607.124 49.449 606.574 Q 48.043 606.025 46.559 605.446 Q 45.076 604.867 43.516 604.260 Q 41.956 603.653 40.728 603.176 Q 39.500 602.699 38.629 602.364 Q 37.758 602.030 36.835 601.680 Q 35.912 601.329 34.936 600.962 Q 33.960 600.595 32.932 600.212 Q 31.904 599.829 30.824 599.429 Q 29.743 599.030 28.611 598.614 Q 27.478 598.198 26.293 597.766 Q 25.107 597.334 23.870 596.885 Q 22.632 596.437 21.457 596.015 Q 20.281 595.593 19.167 595.197 Q 18.053 594.801 17.001 594.431 Q 15.949 594.062 14.959 593.718 Q 13.969 593.375 13.041 593.058 Q 12.112 592.741 10.813 592.304 Q 9.513 591.867 8.028 591.389 Q 6.542 590.911 4.941 590.411 Q 3.339 589.911 1.623 589.386 Q -0.094 588.862 -1.468 588.447 Q -2.842 588.032 -3.786 587.746 Q -4.730 587.460 -5.703 587.164 Q -6.675 586.867 -7.574 586.590 Q -8.473 586.313 -9.712 585.924 Q -10.951 585.535 -12.311 585.103 Q -13.670 584.671 -14.740 584.331 Q -15.809 583.992 -16.978 583.630 Q -18.147 583.269 -19.599 582.819 Q -21.051 582.368 -22.397 581.951 Q -23.742 581.533 -25.011 581.141 Q -26.281 580.750 -27.475 580.388 Q -28.669 580.027 -29.998 579.638 Q -31.327 579.249 -32.793 578.838 Q -34.259 578.427 -35.538 578.091 Q -36.816 577.755 -37.730 577.527 Q -38.644 577.300 -39.621 577.071 Q -40.597 576.842 -41.574 576.632 Q -42.552 576.423 -44.023 576.144 Q -45.495 575.866 -47.466 575.572 Q -49.437 575.279 -50.651 575.129 Q -51.865 574.980 -52.191 574.945 Q -52.517 574.911 -53.620 574.827 Q -54.723 574.743 -55.784 574.675 Q -56.844 574.607 -58.241 574.530 Q -59.638 574.452 -61.390 574.363 Q -63.142 574.274 -64.736 574.189 Q -66.330 574.104 -67.496 574.039 Q -68.662 573.974 -69.930 573.903 Q -71.198 573.832 -72.567 573.767 Q -73.937 573.702 -75.404 573.652 "></path>
    <path id="STROKE_b3d485e4-5833-45c1-8b43-a98de571a5d5" opacity="1.000" fill="none" stroke="#000000" stroke-width="11.009" stroke-opacity="1.000" stroke-linecap="round" stroke-linejoin="round" d="M -65.355 485.920 Q -66.171 485.937 -69.920 486.132 Q -73.669 486.328 -80.326 486.676 Q -86.984 487.025 -92.970 487.360 Q -98.956 487.696 -104.274 488.022 Q -109.592 488.347 -115.317 488.717 Q -121.043 489.088 -127.164 489.491 Q -133.285 489.894 -138.664 490.263 Q -144.044 490.631 -151.031 491.161 Q -158.018 491.691 -163.280 492.154 Q -168.541 492.617 -176.488 493.432 Q -184.434 494.246 -188.578 494.732 Q -192.722 495.217 -197.187 495.855 Q -201.653 496.492 -207.818 497.440 Q -213.984 498.389 -218.723 499.185 Q -223.462 499.981 -228.435 500.952 Q -233.407 501.922 -236.649 502.627 Q -239.891 503.332 -247.185 505.160 Q -254.480 506.987 -260.282 508.759 Q -266.084 510.530 -272.251 512.717 Q -278.417 514.904 -283.968 517.051 Q -289.518 519.198 -293.904 520.792 Q -298.289 522.386 -303.360 524.142 Q -308.431 525.898 -312.094 527.050 Q -315.758 528.203 -319.143 529.027 Q -322.527 529.851 -324.869 530.218 Q -327.210 530.584 -329.588 530.744 Q -331.966 530.903 -335.119 530.655 Q -338.272 530.408 -340.104 529.886 Q -341.935 529.365 -342.840 528.945 Q -343.745 528.525 -344.575 527.954 Q -345.406 527.382 -346.119 526.645 Q -346.831 525.909 -347.544 524.752 Q -348.257 523.596 -348.635 522.530 Q -349.013 521.464 -349.208 520.199 Q -349.402 518.934 -348.585 514.570 Q -347.769 510.206 -346.392 507.689 Q -345.015 505.172 -342.149 502.012 Q -339.283 498.853 -336.630 496.760 Q -333.977 494.667 -329.524 491.967 Q -325.072 489.268 -319.659 486.757 Q -314.246 484.247 -310.069 482.603 Q -305.892 480.959 -300.431 479.086 Q -294.969 477.214 -290.762 475.894 Q -286.555 474.575 -284.879 474.064 Q -283.203 473.553 -278.774 472.285 Q -274.344 471.018 -268.812 469.534 Q -263.280 468.050 -255.973 466.298 Q -248.665 464.545 -239.803 462.794 Q -230.941 461.043 -226.209 460.276 Q -221.478 459.508 -219.628 459.240 Q -217.778 458.971 -211.090 458.152 Q -204.402 457.334 -198.250 456.786 Q -192.099 456.237 -184.253 455.686 Q -176.408 455.135 -170.124 454.780 Q -163.839 454.424 -156.753 454.185 Q -149.666 453.945 -144.288 453.845 Q -138.910 453.744 -134.881 453.717 Q -130.853 453.689 -126.483 453.721 Q -122.113 453.752 -116.059 453.834 Q -110.005 453.916 -103.288 454.166 Q -96.571 454.415 -89.191 454.832 Q -81.811 455.250 -75.686 455.671 Q -69.562 456.093 -62.259 456.732 Q -54.957 457.371 -48.938 458.016 Q -42.920 458.661 -39.944 459.016 Q -36.968 459.371 -29.930 460.282 Q -22.891 461.192 -13.374 462.660 Q -3.856 464.128 -0.292 464.735 Q 3.271 465.343 7.999 466.263 Q 12.727 467.184 19.809 468.620 Q 26.890 470.057 34.010 471.647 Q 41.130 473.238 48.289 474.983 Q 55.448 476.728 59.739 477.789 Q 64.029 478.849 65.452 479.226 Q 66.874 479.602 70.861 480.665 Q 74.849 481.727 81.402 483.474 Q 87.955 485.222 93.976 486.855 Q 99.997 488.488 105.486 490.005 Q 110.974 491.523 115.867 492.945 Q 120.761 494.368 127.207 496.359 Q 133.654 498.350 137.749 499.748 Q 141.844 501.146 148.487 503.564 Q 155.130 505.981 159.391 507.698 Q 163.652 509.414 169.518 512.034 Q 175.384 514.654 178.563 516.210 Q 181.742 517.766 185.742 519.873 Q 189.742 521.981 194.831 524.984 Q 199.919 527.987 204.150 530.912 Q 208.382 533.837 210.978 535.875 Q 213.573 537.913 217.282 541.215 Q 220.992 544.516 225.693 549.743 Q 230.395 554.970 232.589 558.047 Q 234.782 561.124 236.551 564.162 Q 238.321 567.199 239.452 569.672 Q 240.583 572.145 241.178 573.779 Q 241.774 575.412 242.945 580.764 Q 244.116 586.117 244.157 589.685 Q 244.199 593.252 243.467 596.293 Q 242.735 599.334 242.118 600.570 Q 241.501 601.806 241.106 602.337 Q 240.712 602.867 240.226 603.358 Q 239.740 603.850 238.681 604.501 Q 237.623 605.153 237.417 605.258 Q 237.211 605.363 235.255 605.866 Q 233.300 606.369 231.850 606.406 Q 230.399 606.444 229.247 606.311 Q 228.095 606.179 225.865 605.608 Q 223.635 605.036 221.332 604.145 Q 219.028 603.253 212.025 599.259 Q 205.022 595.265 199.329 591.190 Q 193.636 587.115 187.956 582.857 Q 182.276 578.600 177.978 575.445 Q 173.680 572.289 168.870 568.820 Q 164.060 565.352 160.161 562.599 Q 156.261 559.847 151.775 556.791 Q 147.290 553.734 144.332 551.795 Q 141.374 549.855 137.904 547.637 Q 134.434 545.420 130.964 543.293 Q 127.494 541.165 122.095 538.038 Q 116.696 534.910 113.155 532.997 Q 109.614 531.084 107.189 529.827 Q 104.763 528.570 95.921 524.424 Q 87.078 520.279 81.807 518.152 Q 76.536 516.025 71.249 514.163 Q 65.962 512.301 62.742 511.282 Q 59.521 510.262 57.305 509.588 Q 55.089 508.913 50.129 507.536 Q 45.170 506.160 39.788 504.881 Q 34.406 503.603 26.968 501.833 Q 19.529 500.062 13.016 498.571 Q 6.504 497.081 0.919 495.856 Q -4.665 494.631 -9.297 493.648 Q -13.928 492.665 -19.452 491.594 Q -24.975 490.523 -33.375 489.219 Q -41.775 487.915 -49.386 487.172 Q -56.998 486.429 -58.972 486.311 Q -60.946 486.193 -62.904 486.127 Q -64.863 486.062 -65.794 486.058 Q -66.726 486.054 -68.547 486.025 Q -70.368 485.995 -73.463 485.931 Q -76.558 485.866 -80.464 485.862 "></path>
  </g>
</svg>